<svg
  xmlns="http://www.w3.org/2000/svg"
  viewBox="0 0 24 24"
  fill="currentColor"
  className="w-6 h-6"
>
  <path d="M19 0h-14c-2.76 0-5 2.24-5 5v14c0 2.76 2.24 5 5 5h14c2.762 0 5-2.24 5-5v-14c0-2.76-2.238-5-5-5zm-11 19h-3v-10h3v10zm-1.5-11.268c-.966 0-1.75-.784-1.75-1.75s.784-1.75 1.75-1.75 1.75.784 1.75 1.75-.784 1.75-1.75 1.75zm13.5 11.268h-3v-5.604c0-1.337-.026-3.062-1.868-3.062-1.868 0-2.154 1.459-2.154 2.968v5.698h-3v-10h2.881v1.367h.041c.401-.758 1.379-1.558 2.838-1.558 3.034 0 3.594 1.998 3.594 4.593v5.598z"/>
</svg>
